<mxfile host="app.diagrams.net" modified="2024-02-21T07:54:54.465Z" agent="Mozilla/5.0 (Windows NT 10.0; Win64; x64) AppleWebKit/537.36 (KHTML, like Gecko) Chrome/121.0.0.0 Safari/537.36" etag="imnb0-wQT4JOq47UTPys" version="23.1.2" type="device">
  <diagram name="Page-1" id="o904JdWySnEKl-uZYu3Z">
    <mxGraphModel dx="3036" dy="767" grid="1" gridSize="10" guides="1" tooltips="1" connect="1" arrows="1" fold="1" page="1" pageScale="1" pageWidth="1169" pageHeight="1654" math="0" shadow="0">
      <root>
        <mxCell id="0" />
        <mxCell id="1" parent="0" />
        <mxCell id="JEUI9qPD13EzQBh4-sBq-1" value="" style="whiteSpace=wrap;html=1;aspect=fixed;" parent="1" vertex="1">
          <mxGeometry x="290" y="100" width="840" height="840" as="geometry" />
        </mxCell>
        <mxCell id="JEUI9qPD13EzQBh4-sBq-2" value="" style="rounded=1;whiteSpace=wrap;html=1;" parent="1" vertex="1">
          <mxGeometry x="450" y="130" width="660" height="250" as="geometry" />
        </mxCell>
        <mxCell id="JEUI9qPD13EzQBh4-sBq-3" value="" style="rounded=1;whiteSpace=wrap;html=1;" parent="1" vertex="1">
          <mxGeometry x="430" y="420" width="680" height="500" as="geometry" />
        </mxCell>
        <mxCell id="JEUI9qPD13EzQBh4-sBq-7" value="&lt;font style=&quot;font-size: 20px;&quot;&gt;namespace: shopquanao&lt;/font&gt;" style="text;html=1;strokeColor=none;fillColor=none;align=center;verticalAlign=middle;whiteSpace=wrap;rounded=0;strokeWidth=7;" parent="1" vertex="1">
          <mxGeometry x="627.5" y="97.12" width="247.5" height="40" as="geometry" />
        </mxCell>
        <mxCell id="JEUI9qPD13EzQBh4-sBq-8" value="&lt;p style=&quot;line-height: 120%;&quot;&gt;&lt;font style=&quot;font-size: 34px;&quot;&gt;cluster&lt;/font&gt;&lt;/p&gt;" style="text;html=1;strokeColor=none;fillColor=none;align=center;verticalAlign=middle;whiteSpace=wrap;rounded=0;strokeWidth=8;" parent="1" vertex="1">
          <mxGeometry x="682.5" y="67.12" width="60" height="30" as="geometry" />
        </mxCell>
        <mxCell id="JEUI9qPD13EzQBh4-sBq-11" value="&lt;font style=&quot;font-size: 19px;&quot;&gt;namespace: bookstore&lt;/font&gt;" style="text;html=1;strokeColor=none;fillColor=none;align=center;verticalAlign=middle;whiteSpace=wrap;rounded=0;" parent="1" vertex="1">
          <mxGeometry x="645" y="388.38" width="200" height="40" as="geometry" />
        </mxCell>
        <mxCell id="JEUI9qPD13EzQBh4-sBq-12" value="&lt;font style=&quot;font-size: 15px;&quot;&gt;DigitalOcean&lt;br&gt;Load Balancer&lt;/font&gt;" style="rounded=1;whiteSpace=wrap;html=1;" parent="1" vertex="1">
          <mxGeometry x="140" y="368.38" width="120" height="60" as="geometry" />
        </mxCell>
        <mxCell id="JEUI9qPD13EzQBh4-sBq-15" style="edgeStyle=orthogonalEdgeStyle;rounded=0;orthogonalLoop=1;jettySize=auto;html=1;entryX=0.001;entryY=0.527;entryDx=0;entryDy=0;exitX=0.5;exitY=1;exitDx=0;exitDy=0;entryPerimeter=0;" parent="1" source="JEUI9qPD13EzQBh4-sBq-13" target="JEUI9qPD13EzQBh4-sBq-3" edge="1">
          <mxGeometry relative="1" as="geometry">
            <mxPoint x="250" y="460" as="sourcePoint" />
            <mxPoint x="380" y="709.9999999999999" as="targetPoint" />
          </mxGeometry>
        </mxCell>
        <mxCell id="JEUI9qPD13EzQBh4-sBq-13" value="&lt;font style=&quot;font-size: 15px;&quot;&gt;Nginx Ingress&lt;br&gt;Controller&lt;/font&gt;" style="rounded=1;whiteSpace=wrap;html=1;" parent="1" vertex="1">
          <mxGeometry x="310" y="368.38" width="120" height="65" as="geometry" />
        </mxCell>
        <mxCell id="JEUI9qPD13EzQBh4-sBq-18" value="spring&lt;br&gt;service" style="shape=hexagon;perimeter=hexagonPerimeter2;whiteSpace=wrap;html=1;fixedSize=1;" parent="1" vertex="1">
          <mxGeometry x="517.5" y="549" width="70" height="35" as="geometry" />
        </mxCell>
        <mxCell id="JEUI9qPD13EzQBh4-sBq-19" value="react&lt;br&gt;service" style="shape=hexagon;perimeter=hexagonPerimeter2;whiteSpace=wrap;html=1;fixedSize=1;" parent="1" vertex="1">
          <mxGeometry x="530" y="785" width="70" height="35" as="geometry" />
        </mxCell>
        <mxCell id="JEUI9qPD13EzQBh4-sBq-21" value="" style="rounded=1;whiteSpace=wrap;html=1;" parent="1" vertex="1">
          <mxGeometry x="635" y="731.5" width="120" height="180" as="geometry" />
        </mxCell>
        <mxCell id="JEUI9qPD13EzQBh4-sBq-17" value="React&lt;br&gt;Pod" style="rhombus;whiteSpace=wrap;html=1;" parent="1" vertex="1">
          <mxGeometry x="660" y="750" width="70" height="60" as="geometry" />
        </mxCell>
        <mxCell id="JEUI9qPD13EzQBh4-sBq-24" value="&lt;font style=&quot;font-size: 14px;&quot;&gt;deployment&lt;br&gt;replica: 2&lt;/font&gt;" style="text;html=1;strokeColor=none;fillColor=none;align=center;verticalAlign=middle;whiteSpace=wrap;rounded=0;" parent="1" vertex="1">
          <mxGeometry x="661.25" y="691.5" width="60" height="30" as="geometry" />
        </mxCell>
        <mxCell id="JEUI9qPD13EzQBh4-sBq-25" value="&lt;font style=&quot;font-size: 14px;&quot;&gt;deployment&lt;br&gt;replica: 2&lt;/font&gt;" style="text;html=1;strokeColor=none;fillColor=none;align=center;verticalAlign=middle;whiteSpace=wrap;rounded=0;" parent="1" vertex="1">
          <mxGeometry x="652.5" y="442.75" width="60" height="30" as="geometry" />
        </mxCell>
        <mxCell id="JEUI9qPD13EzQBh4-sBq-22" value="" style="rounded=1;whiteSpace=wrap;html=1;" parent="1" vertex="1">
          <mxGeometry x="622.5" y="480" width="135" height="201.5" as="geometry" />
        </mxCell>
        <mxCell id="JEUI9qPD13EzQBh4-sBq-20" value="Spring&lt;br&gt;Pod" style="rhombus;whiteSpace=wrap;html=1;" parent="1" vertex="1">
          <mxGeometry x="651.25" y="500" width="77.5" height="60" as="geometry" />
        </mxCell>
        <mxCell id="JEUI9qPD13EzQBh4-sBq-16" value="Spring&lt;br&gt;Pod" style="rhombus;whiteSpace=wrap;html=1;" parent="1" vertex="1">
          <mxGeometry x="656.25" y="593" width="70" height="60" as="geometry" />
        </mxCell>
        <mxCell id="JEUI9qPD13EzQBh4-sBq-26" value="" style="rounded=1;whiteSpace=wrap;html=1;" parent="1" vertex="1">
          <mxGeometry x="896.25" y="480" width="130" height="140" as="geometry" />
        </mxCell>
        <mxCell id="JEUI9qPD13EzQBh4-sBq-29" value="&lt;font style=&quot;font-size: 14px;&quot;&gt;deployment&lt;br&gt;replica: 1&lt;/font&gt;" style="text;html=1;strokeColor=none;fillColor=none;align=center;verticalAlign=middle;whiteSpace=wrap;rounded=0;" parent="1" vertex="1">
          <mxGeometry x="931.25" y="442.75" width="60" height="30" as="geometry" />
        </mxCell>
        <mxCell id="JEUI9qPD13EzQBh4-sBq-30" value="Mysql&lt;br&gt;Pod" style="rhombus;whiteSpace=wrap;html=1;" parent="1" vertex="1">
          <mxGeometry x="931.25" y="520" width="70" height="60" as="geometry" />
        </mxCell>
        <mxCell id="JEUI9qPD13EzQBh4-sBq-32" value="mysql&lt;br&gt;service" style="shape=hexagon;perimeter=hexagonPerimeter2;whiteSpace=wrap;html=1;fixedSize=1;" parent="1" vertex="1">
          <mxGeometry x="800" y="537.5" width="70" height="42.5" as="geometry" />
        </mxCell>
        <mxCell id="JEUI9qPD13EzQBh4-sBq-38" value="React&lt;br&gt;Pod" style="rhombus;whiteSpace=wrap;html=1;" parent="1" vertex="1">
          <mxGeometry x="661.25" y="830" width="70" height="60" as="geometry" />
        </mxCell>
        <mxCell id="JEUI9qPD13EzQBh4-sBq-41" value="&lt;font style=&quot;font-size: 13px;&quot;&gt;bookstore&lt;br&gt;ingress&lt;/font&gt;" style="ellipse;whiteSpace=wrap;html=1;" parent="1" vertex="1">
          <mxGeometry x="497.5" y="653" width="80" height="57" as="geometry" />
        </mxCell>
        <mxCell id="JEUI9qPD13EzQBh4-sBq-46" value="" style="endArrow=classic;html=1;rounded=0;entryX=-0.004;entryY=0.436;entryDx=0;entryDy=0;entryPerimeter=0;exitX=1;exitY=0.472;exitDx=0;exitDy=0;exitPerimeter=0;" parent="1" source="JEUI9qPD13EzQBh4-sBq-12" target="JEUI9qPD13EzQBh4-sBq-13" edge="1">
          <mxGeometry width="50" height="50" relative="1" as="geometry">
            <mxPoint x="180" y="390" as="sourcePoint" />
            <mxPoint x="220" y="390" as="targetPoint" />
          </mxGeometry>
        </mxCell>
        <mxCell id="JEUI9qPD13EzQBh4-sBq-47" value="" style="endArrow=classic;html=1;rounded=0;entryX=0.5;entryY=1;entryDx=0;entryDy=0;exitX=0.5;exitY=0;exitDx=0;exitDy=0;" parent="1" source="JEUI9qPD13EzQBh4-sBq-41" target="JEUI9qPD13EzQBh4-sBq-18" edge="1">
          <mxGeometry width="50" height="50" relative="1" as="geometry">
            <mxPoint x="527.5" y="641.5" as="sourcePoint" />
            <mxPoint x="577.5" y="591.5" as="targetPoint" />
          </mxGeometry>
        </mxCell>
        <mxCell id="JEUI9qPD13EzQBh4-sBq-48" value="" style="endArrow=classic;html=1;rounded=0;entryX=0.5;entryY=0;entryDx=0;entryDy=0;exitX=0.534;exitY=0.998;exitDx=0;exitDy=0;exitPerimeter=0;" parent="1" source="JEUI9qPD13EzQBh4-sBq-41" target="JEUI9qPD13EzQBh4-sBq-19" edge="1">
          <mxGeometry width="50" height="50" relative="1" as="geometry">
            <mxPoint x="460" y="720" as="sourcePoint" />
            <mxPoint x="510" y="670" as="targetPoint" />
          </mxGeometry>
        </mxCell>
        <mxCell id="JEUI9qPD13EzQBh4-sBq-49" value="" style="endArrow=classic;html=1;rounded=0;entryX=0;entryY=0.5;entryDx=0;entryDy=0;exitX=1;exitY=0.5;exitDx=0;exitDy=0;" parent="1" source="JEUI9qPD13EzQBh4-sBq-18" target="JEUI9qPD13EzQBh4-sBq-20" edge="1">
          <mxGeometry width="50" height="50" relative="1" as="geometry">
            <mxPoint x="510" y="600" as="sourcePoint" />
            <mxPoint x="560" y="550" as="targetPoint" />
          </mxGeometry>
        </mxCell>
        <mxCell id="JEUI9qPD13EzQBh4-sBq-50" value="" style="endArrow=classic;html=1;rounded=0;entryX=0;entryY=0.5;entryDx=0;entryDy=0;exitX=1;exitY=0.5;exitDx=0;exitDy=0;" parent="1" source="JEUI9qPD13EzQBh4-sBq-18" target="JEUI9qPD13EzQBh4-sBq-16" edge="1">
          <mxGeometry width="50" height="50" relative="1" as="geometry">
            <mxPoint x="510" y="600" as="sourcePoint" />
            <mxPoint x="560" y="550" as="targetPoint" />
          </mxGeometry>
        </mxCell>
        <mxCell id="JEUI9qPD13EzQBh4-sBq-51" value="" style="endArrow=classic;html=1;rounded=0;entryX=0;entryY=0.5;entryDx=0;entryDy=0;exitX=1;exitY=0.5;exitDx=0;exitDy=0;" parent="1" source="JEUI9qPD13EzQBh4-sBq-19" target="JEUI9qPD13EzQBh4-sBq-17" edge="1">
          <mxGeometry width="50" height="50" relative="1" as="geometry">
            <mxPoint x="560" y="730" as="sourcePoint" />
            <mxPoint x="610" y="680" as="targetPoint" />
          </mxGeometry>
        </mxCell>
        <mxCell id="JEUI9qPD13EzQBh4-sBq-52" value="" style="endArrow=classic;html=1;rounded=0;entryX=0;entryY=0.5;entryDx=0;entryDy=0;exitX=1;exitY=0.5;exitDx=0;exitDy=0;" parent="1" source="JEUI9qPD13EzQBh4-sBq-32" target="JEUI9qPD13EzQBh4-sBq-30" edge="1">
          <mxGeometry width="50" height="50" relative="1" as="geometry">
            <mxPoint x="840" y="640" as="sourcePoint" />
            <mxPoint x="890" y="590" as="targetPoint" />
          </mxGeometry>
        </mxCell>
        <mxCell id="JEUI9qPD13EzQBh4-sBq-53" value="" style="endArrow=classic;html=1;rounded=0;exitX=1;exitY=0.5;exitDx=0;exitDy=0;entryX=0;entryY=0.5;entryDx=0;entryDy=0;" parent="1" source="JEUI9qPD13EzQBh4-sBq-20" target="JEUI9qPD13EzQBh4-sBq-32" edge="1">
          <mxGeometry width="50" height="50" relative="1" as="geometry">
            <mxPoint x="800" y="560" as="sourcePoint" />
            <mxPoint x="850" y="510" as="targetPoint" />
          </mxGeometry>
        </mxCell>
        <mxCell id="JEUI9qPD13EzQBh4-sBq-54" value="" style="endArrow=classic;html=1;rounded=0;exitX=1;exitY=0.5;exitDx=0;exitDy=0;entryX=0;entryY=0.5;entryDx=0;entryDy=0;" parent="1" source="JEUI9qPD13EzQBh4-sBq-16" edge="1" target="JEUI9qPD13EzQBh4-sBq-32">
          <mxGeometry width="50" height="50" relative="1" as="geometry">
            <mxPoint x="615" y="653" as="sourcePoint" />
            <mxPoint x="790" y="561" as="targetPoint" />
          </mxGeometry>
        </mxCell>
        <mxCell id="JEUI9qPD13EzQBh4-sBq-55" value="" style="endArrow=classic;html=1;rounded=0;exitX=1;exitY=0.5;exitDx=0;exitDy=0;entryX=0;entryY=0.5;entryDx=0;entryDy=0;" parent="1" source="JEUI9qPD13EzQBh4-sBq-19" target="JEUI9qPD13EzQBh4-sBq-38" edge="1">
          <mxGeometry width="50" height="50" relative="1" as="geometry">
            <mxPoint x="640" y="730" as="sourcePoint" />
            <mxPoint x="690" y="680" as="targetPoint" />
          </mxGeometry>
        </mxCell>
        <mxCell id="JEUI9qPD13EzQBh4-sBq-57" value="" style="endArrow=classic;html=1;rounded=0;entryX=0;entryY=0.5;entryDx=0;entryDy=0;exitX=0.001;exitY=0.526;exitDx=0;exitDy=0;exitPerimeter=0;" parent="1" source="JEUI9qPD13EzQBh4-sBq-3" target="JEUI9qPD13EzQBh4-sBq-41" edge="1">
          <mxGeometry width="50" height="50" relative="1" as="geometry">
            <mxPoint x="480" y="700" as="sourcePoint" />
            <mxPoint x="530" y="650" as="targetPoint" />
          </mxGeometry>
        </mxCell>
        <mxCell id="JEUI9qPD13EzQBh4-sBq-59" value="SSL/TSL&lt;br&gt;Secret" style="shape=parallelogram;perimeter=parallelogramPerimeter;whiteSpace=wrap;html=1;fixedSize=1;" parent="1" vertex="1">
          <mxGeometry x="440" y="777.5" width="80" height="50" as="geometry" />
        </mxCell>
        <mxCell id="JEUI9qPD13EzQBh4-sBq-60" value="" style="endArrow=classic;html=1;rounded=0;entryX=0;entryY=1;entryDx=0;entryDy=0;exitX=0.5;exitY=0;exitDx=0;exitDy=0;" parent="1" source="JEUI9qPD13EzQBh4-sBq-59" target="JEUI9qPD13EzQBh4-sBq-41" edge="1">
          <mxGeometry width="50" height="50" relative="1" as="geometry">
            <mxPoint x="440" y="710" as="sourcePoint" />
            <mxPoint x="490" y="660" as="targetPoint" />
          </mxGeometry>
        </mxCell>
        <mxCell id="JEUI9qPD13EzQBh4-sBq-61" value="PVC NFS&lt;br&gt;RW-many" style="shape=dataStorage;whiteSpace=wrap;html=1;fixedSize=1;" parent="1" vertex="1">
          <mxGeometry x="820" y="790" width="100" height="50" as="geometry" />
        </mxCell>
        <mxCell id="JEUI9qPD13EzQBh4-sBq-62" value="PV" style="shape=dataStorage;whiteSpace=wrap;html=1;fixedSize=1;" parent="1" vertex="1">
          <mxGeometry x="996.25" y="790" width="103.75" height="50" as="geometry" />
        </mxCell>
        <mxCell id="JEUI9qPD13EzQBh4-sBq-63" value="PVC&lt;br&gt;RW-Once" style="shape=document;whiteSpace=wrap;html=1;boundedLbl=1;" parent="1" vertex="1">
          <mxGeometry x="1005" y="671.5" width="70" height="50" as="geometry" />
        </mxCell>
        <mxCell id="JEUI9qPD13EzQBh4-sBq-64" value="" style="endArrow=classic;html=1;rounded=0;entryX=0.5;entryY=0;entryDx=0;entryDy=0;exitX=1;exitY=1;exitDx=0;exitDy=0;" parent="1" source="JEUI9qPD13EzQBh4-sBq-30" target="JEUI9qPD13EzQBh4-sBq-63" edge="1">
          <mxGeometry width="50" height="50" relative="1" as="geometry">
            <mxPoint x="710" y="650" as="sourcePoint" />
            <mxPoint x="760" y="600" as="targetPoint" />
          </mxGeometry>
        </mxCell>
        <mxCell id="JEUI9qPD13EzQBh4-sBq-65" value="" style="endArrow=classic;html=1;rounded=0;entryX=0.5;entryY=0;entryDx=0;entryDy=0;exitX=0.626;exitY=0.771;exitDx=0;exitDy=0;exitPerimeter=0;" parent="1" source="JEUI9qPD13EzQBh4-sBq-63" target="JEUI9qPD13EzQBh4-sBq-62" edge="1">
          <mxGeometry width="50" height="50" relative="1" as="geometry">
            <mxPoint x="710" y="710" as="sourcePoint" />
            <mxPoint x="760" y="660" as="targetPoint" />
          </mxGeometry>
        </mxCell>
        <mxCell id="JEUI9qPD13EzQBh4-sBq-66" value="PVC&lt;br&gt;RW-Many" style="shape=document;whiteSpace=wrap;html=1;boundedLbl=1;" parent="1" vertex="1">
          <mxGeometry x="835" y="671.5" width="70" height="50" as="geometry" />
        </mxCell>
        <mxCell id="JEUI9qPD13EzQBh4-sBq-67" value="" style="endArrow=classic;html=1;rounded=0;entryX=0.005;entryY=0.02;entryDx=0;entryDy=0;entryPerimeter=0;exitX=1;exitY=1;exitDx=0;exitDy=0;" parent="1" source="JEUI9qPD13EzQBh4-sBq-16" target="JEUI9qPD13EzQBh4-sBq-66" edge="1">
          <mxGeometry width="50" height="50" relative="1" as="geometry">
            <mxPoint x="690" y="640" as="sourcePoint" />
            <mxPoint x="740" y="590" as="targetPoint" />
          </mxGeometry>
        </mxCell>
        <mxCell id="JEUI9qPD13EzQBh4-sBq-68" value="" style="endArrow=classic;html=1;rounded=0;entryX=0.008;entryY=0.877;entryDx=0;entryDy=0;entryPerimeter=0;exitX=1;exitY=0.5;exitDx=0;exitDy=0;" parent="1" source="JEUI9qPD13EzQBh4-sBq-17" target="JEUI9qPD13EzQBh4-sBq-66" edge="1">
          <mxGeometry width="50" height="50" relative="1" as="geometry">
            <mxPoint x="680" y="760" as="sourcePoint" />
            <mxPoint x="730" y="710" as="targetPoint" />
          </mxGeometry>
        </mxCell>
        <mxCell id="JEUI9qPD13EzQBh4-sBq-69" value="" style="endArrow=classic;html=1;rounded=0;entryX=0.373;entryY=0.981;entryDx=0;entryDy=0;entryPerimeter=0;exitX=1;exitY=0.5;exitDx=0;exitDy=0;" parent="1" source="JEUI9qPD13EzQBh4-sBq-38" target="JEUI9qPD13EzQBh4-sBq-66" edge="1">
          <mxGeometry width="50" height="50" relative="1" as="geometry">
            <mxPoint x="600" y="790" as="sourcePoint" />
            <mxPoint x="650" y="740" as="targetPoint" />
          </mxGeometry>
        </mxCell>
        <mxCell id="JEUI9qPD13EzQBh4-sBq-70" value="" style="endArrow=classic;html=1;rounded=0;entryX=0.5;entryY=0;entryDx=0;entryDy=0;exitX=0.489;exitY=0.876;exitDx=0;exitDy=0;exitPerimeter=0;" parent="1" source="JEUI9qPD13EzQBh4-sBq-66" target="JEUI9qPD13EzQBh4-sBq-61" edge="1">
          <mxGeometry width="50" height="50" relative="1" as="geometry">
            <mxPoint x="720" y="840" as="sourcePoint" />
            <mxPoint x="770" y="790" as="targetPoint" />
          </mxGeometry>
        </mxCell>
        <mxCell id="JEUI9qPD13EzQBh4-sBq-72" value="&lt;font style=&quot;font-size: 17px;&quot;&gt;Server NFS&lt;/font&gt;" style="rounded=0;whiteSpace=wrap;html=1;" parent="1" vertex="1">
          <mxGeometry x="810" y="970" width="120" height="60" as="geometry" />
        </mxCell>
        <mxCell id="JEUI9qPD13EzQBh4-sBq-73" value="" style="endArrow=classic;html=1;rounded=0;entryX=0.5;entryY=0;entryDx=0;entryDy=0;exitX=0.5;exitY=1;exitDx=0;exitDy=0;" parent="1" source="JEUI9qPD13EzQBh4-sBq-61" target="JEUI9qPD13EzQBh4-sBq-72" edge="1">
          <mxGeometry width="50" height="50" relative="1" as="geometry">
            <mxPoint x="700" y="850" as="sourcePoint" />
            <mxPoint x="750" y="800" as="targetPoint" />
          </mxGeometry>
        </mxCell>
        <mxCell id="JEUI9qPD13EzQBh4-sBq-75" value="" style="rounded=1;whiteSpace=wrap;html=1;arcSize=17;" parent="1" vertex="1">
          <mxGeometry x="657.5" y="171.12" width="100" height="175.75" as="geometry" />
        </mxCell>
        <mxCell id="JEUI9qPD13EzQBh4-sBq-76" value="&lt;font style=&quot;font-size: 14px;&quot;&gt;deployment&lt;br&gt;replica: 2&lt;/font&gt;" style="text;html=1;strokeColor=none;fillColor=none;align=center;verticalAlign=middle;whiteSpace=wrap;rounded=0;" parent="1" vertex="1">
          <mxGeometry x="677.5" y="137.12" width="60" height="30" as="geometry" />
        </mxCell>
        <mxCell id="JEUI9qPD13EzQBh4-sBq-77" value="" style="rounded=1;whiteSpace=wrap;html=1;" parent="1" vertex="1">
          <mxGeometry x="857.5" y="179.62" width="100" height="120.75" as="geometry" />
        </mxCell>
        <mxCell id="JEUI9qPD13EzQBh4-sBq-78" value="&lt;font style=&quot;font-size: 14px;&quot;&gt;deployment&lt;br&gt;replica: 1&lt;/font&gt;" style="text;html=1;strokeColor=none;fillColor=none;align=center;verticalAlign=middle;whiteSpace=wrap;rounded=0;" parent="1" vertex="1">
          <mxGeometry x="875" y="141.12" width="60" height="30" as="geometry" />
        </mxCell>
        <mxCell id="JEUI9qPD13EzQBh4-sBq-79" value="SQL&lt;br&gt;Pod" style="rhombus;whiteSpace=wrap;html=1;" parent="1" vertex="1">
          <mxGeometry x="875" y="210" width="70" height="60" as="geometry" />
        </mxCell>
        <mxCell id="JEUI9qPD13EzQBh4-sBq-80" value="PVC&lt;br&gt;RW-Once" style="shape=document;whiteSpace=wrap;html=1;boundedLbl=1;" parent="1" vertex="1">
          <mxGeometry x="1013.13" y="179.24" width="70" height="50" as="geometry" />
        </mxCell>
        <mxCell id="JEUI9qPD13EzQBh4-sBq-81" value="PV" style="shape=dataStorage;whiteSpace=wrap;html=1;fixedSize=1;" parent="1" vertex="1">
          <mxGeometry x="996.25" y="318.38" width="87.5" height="40" as="geometry" />
        </mxCell>
        <mxCell id="JEUI9qPD13EzQBh4-sBq-82" value="&lt;font style=&quot;font-size: 14px;&quot;&gt;bookstore&lt;br&gt;ingress&lt;/font&gt;" style="ellipse;whiteSpace=wrap;html=1;" parent="1" vertex="1">
          <mxGeometry x="480" y="221.12" width="80" height="57" as="geometry" />
        </mxCell>
        <mxCell id="JEUI9qPD13EzQBh4-sBq-83" value="SQL&lt;br&gt;service" style="shape=hexagon;perimeter=hexagonPerimeter2;whiteSpace=wrap;html=1;fixedSize=1;" parent="1" vertex="1">
          <mxGeometry x="780" y="221.12" width="70" height="42.5" as="geometry" />
        </mxCell>
        <mxCell id="JEUI9qPD13EzQBh4-sBq-84" value="ASP&lt;br&gt;Pod" style="rhombus;whiteSpace=wrap;html=1;" parent="1" vertex="1">
          <mxGeometry x="675" y="179.62" width="70" height="60" as="geometry" />
        </mxCell>
        <mxCell id="JEUI9qPD13EzQBh4-sBq-85" value="ASP&lt;br&gt;Pod" style="rhombus;whiteSpace=wrap;html=1;" parent="1" vertex="1">
          <mxGeometry x="677.5" y="263.62" width="70" height="60" as="geometry" />
        </mxCell>
        <mxCell id="JEUI9qPD13EzQBh4-sBq-86" value="ASP&lt;br&gt;service" style="shape=hexagon;perimeter=hexagonPerimeter2;whiteSpace=wrap;html=1;fixedSize=1;" parent="1" vertex="1">
          <mxGeometry x="585" y="229.24" width="62.5" height="40.75" as="geometry" />
        </mxCell>
        <mxCell id="JEUI9qPD13EzQBh4-sBq-87" value="" style="endArrow=classic;html=1;rounded=0;entryX=0;entryY=0.5;entryDx=0;entryDy=0;exitX=0.004;exitY=0.479;exitDx=0;exitDy=0;exitPerimeter=0;" parent="1" source="JEUI9qPD13EzQBh4-sBq-2" target="JEUI9qPD13EzQBh4-sBq-82" edge="1">
          <mxGeometry width="50" height="50" relative="1" as="geometry">
            <mxPoint x="480" y="370" as="sourcePoint" />
            <mxPoint x="530" y="320" as="targetPoint" />
          </mxGeometry>
        </mxCell>
        <mxCell id="JEUI9qPD13EzQBh4-sBq-88" value="SSL/TSL&lt;br&gt;Secret" style="shape=parallelogram;perimeter=parallelogramPerimeter;whiteSpace=wrap;html=1;fixedSize=1;" parent="1" vertex="1">
          <mxGeometry x="480" y="318.38" width="80" height="50" as="geometry" />
        </mxCell>
        <mxCell id="JEUI9qPD13EzQBh4-sBq-89" value="" style="endArrow=classic;html=1;rounded=0;entryX=0.5;entryY=1;entryDx=0;entryDy=0;exitX=0.5;exitY=0;exitDx=0;exitDy=0;" parent="1" source="JEUI9qPD13EzQBh4-sBq-88" target="JEUI9qPD13EzQBh4-sBq-82" edge="1">
          <mxGeometry width="50" height="50" relative="1" as="geometry">
            <mxPoint x="560" y="370" as="sourcePoint" />
            <mxPoint x="610" y="320" as="targetPoint" />
          </mxGeometry>
        </mxCell>
        <mxCell id="JEUI9qPD13EzQBh4-sBq-90" value="" style="endArrow=classic;html=1;rounded=0;entryX=0;entryY=0.5;entryDx=0;entryDy=0;exitX=1;exitY=0.5;exitDx=0;exitDy=0;" parent="1" source="JEUI9qPD13EzQBh4-sBq-82" target="JEUI9qPD13EzQBh4-sBq-86" edge="1">
          <mxGeometry width="50" height="50" relative="1" as="geometry">
            <mxPoint x="560" y="370" as="sourcePoint" />
            <mxPoint x="610" y="320" as="targetPoint" />
          </mxGeometry>
        </mxCell>
        <mxCell id="JEUI9qPD13EzQBh4-sBq-91" value="" style="endArrow=classic;html=1;rounded=0;entryX=0;entryY=1;entryDx=0;entryDy=0;exitX=1;exitY=0.5;exitDx=0;exitDy=0;" parent="1" source="JEUI9qPD13EzQBh4-sBq-86" target="JEUI9qPD13EzQBh4-sBq-84" edge="1">
          <mxGeometry width="50" height="50" relative="1" as="geometry">
            <mxPoint x="650" y="250" as="sourcePoint" />
            <mxPoint x="690" y="260" as="targetPoint" />
          </mxGeometry>
        </mxCell>
        <mxCell id="JEUI9qPD13EzQBh4-sBq-92" value="" style="endArrow=classic;html=1;rounded=0;exitX=1;exitY=0.5;exitDx=0;exitDy=0;entryX=0;entryY=0;entryDx=0;entryDy=0;" parent="1" source="JEUI9qPD13EzQBh4-sBq-86" target="JEUI9qPD13EzQBh4-sBq-85" edge="1">
          <mxGeometry width="50" height="50" relative="1" as="geometry">
            <mxPoint x="640" y="310" as="sourcePoint" />
            <mxPoint x="690" y="260" as="targetPoint" />
          </mxGeometry>
        </mxCell>
        <mxCell id="JEUI9qPD13EzQBh4-sBq-93" value="" style="endArrow=classic;html=1;rounded=0;entryX=0;entryY=0.5;entryDx=0;entryDy=0;exitX=1;exitY=1;exitDx=0;exitDy=0;" parent="1" source="JEUI9qPD13EzQBh4-sBq-84" target="JEUI9qPD13EzQBh4-sBq-83" edge="1">
          <mxGeometry width="50" height="50" relative="1" as="geometry">
            <mxPoint x="663" y="260" as="sourcePoint" />
            <mxPoint x="690" y="231" as="targetPoint" />
          </mxGeometry>
        </mxCell>
        <mxCell id="JEUI9qPD13EzQBh4-sBq-94" value="" style="endArrow=classic;html=1;rounded=0;exitX=1;exitY=0;exitDx=0;exitDy=0;entryX=0;entryY=0.5;entryDx=0;entryDy=0;" parent="1" source="JEUI9qPD13EzQBh4-sBq-85" target="JEUI9qPD13EzQBh4-sBq-83" edge="1">
          <mxGeometry width="50" height="50" relative="1" as="geometry">
            <mxPoint x="725" y="231" as="sourcePoint" />
            <mxPoint x="750" y="240" as="targetPoint" />
          </mxGeometry>
        </mxCell>
        <mxCell id="JEUI9qPD13EzQBh4-sBq-96" value="" style="endArrow=classic;html=1;rounded=0;entryX=0.004;entryY=0.323;entryDx=0;entryDy=0;entryPerimeter=0;exitX=1;exitY=0.5;exitDx=0;exitDy=0;" parent="1" source="JEUI9qPD13EzQBh4-sBq-79" target="JEUI9qPD13EzQBh4-sBq-80" edge="1">
          <mxGeometry width="50" height="50" relative="1" as="geometry">
            <mxPoint x="840" y="290" as="sourcePoint" />
            <mxPoint x="890" y="240" as="targetPoint" />
          </mxGeometry>
        </mxCell>
        <mxCell id="JEUI9qPD13EzQBh4-sBq-97" value="" style="endArrow=classic;html=1;rounded=0;entryX=0.5;entryY=0;entryDx=0;entryDy=0;exitX=0.396;exitY=0.945;exitDx=0;exitDy=0;exitPerimeter=0;" parent="1" source="JEUI9qPD13EzQBh4-sBq-80" target="JEUI9qPD13EzQBh4-sBq-81" edge="1">
          <mxGeometry width="50" height="50" relative="1" as="geometry">
            <mxPoint x="880" y="290" as="sourcePoint" />
            <mxPoint x="930" y="240" as="targetPoint" />
          </mxGeometry>
        </mxCell>
        <mxCell id="JEUI9qPD13EzQBh4-sBq-98" value="NFS" style="text;html=1;strokeColor=none;fillColor=none;align=center;verticalAlign=middle;whiteSpace=wrap;rounded=0;" parent="1" vertex="1">
          <mxGeometry x="822.5" y="890" width="60" height="30" as="geometry" />
        </mxCell>
        <mxCell id="JEUI9qPD13EzQBh4-sBq-99" value="" style="endArrow=classic;html=1;rounded=0;entryX=0;entryY=0.5;entryDx=0;entryDy=0;" parent="1" target="JEUI9qPD13EzQBh4-sBq-12" edge="1">
          <mxGeometry width="50" height="50" relative="1" as="geometry">
            <mxPoint x="60" y="360" as="sourcePoint" />
            <mxPoint x="380" y="440" as="targetPoint" />
          </mxGeometry>
        </mxCell>
        <mxCell id="JEUI9qPD13EzQBh4-sBq-100" value="" style="endArrow=classic;html=1;rounded=0;entryX=0;entryY=0.5;entryDx=0;entryDy=0;" parent="1" target="JEUI9qPD13EzQBh4-sBq-12" edge="1">
          <mxGeometry width="50" height="50" relative="1" as="geometry">
            <mxPoint x="70" y="450" as="sourcePoint" />
            <mxPoint x="380" y="440" as="targetPoint" />
          </mxGeometry>
        </mxCell>
        <mxCell id="JEUI9qPD13EzQBh4-sBq-101" value="" style="endArrow=classic;html=1;rounded=0;entryX=0;entryY=0.5;entryDx=0;entryDy=0;" parent="1" target="JEUI9qPD13EzQBh4-sBq-12" edge="1">
          <mxGeometry width="50" height="50" relative="1" as="geometry">
            <mxPoint x="50" y="400" as="sourcePoint" />
            <mxPoint x="380" y="440" as="targetPoint" />
          </mxGeometry>
        </mxCell>
        <mxCell id="JEUI9qPD13EzQBh4-sBq-102" style="edgeStyle=orthogonalEdgeStyle;rounded=0;orthogonalLoop=1;jettySize=auto;html=1;entryX=-0.001;entryY=0.475;entryDx=0;entryDy=0;entryPerimeter=0;exitX=0.5;exitY=0;exitDx=0;exitDy=0;" parent="1" source="JEUI9qPD13EzQBh4-sBq-13" target="JEUI9qPD13EzQBh4-sBq-2" edge="1">
          <mxGeometry relative="1" as="geometry" />
        </mxCell>
        <mxCell id="kyV8k84bUw7KoBB66RXc-1" value="" style="endArrow=classic;html=1;rounded=0;entryX=0;entryY=0.5;entryDx=0;entryDy=0;exitX=1;exitY=0.5;exitDx=0;exitDy=0;" parent="1" source="JEUI9qPD13EzQBh4-sBq-83" target="JEUI9qPD13EzQBh4-sBq-79" edge="1">
          <mxGeometry width="50" height="50" relative="1" as="geometry">
            <mxPoint x="730" y="290" as="sourcePoint" />
            <mxPoint x="780" y="240" as="targetPoint" />
          </mxGeometry>
        </mxCell>
        <mxCell id="kyV8k84bUw7KoBB66RXc-3" value="Request" style="text;html=1;strokeColor=none;fillColor=none;align=center;verticalAlign=middle;whiteSpace=wrap;rounded=0;" parent="1" vertex="1">
          <mxGeometry x="-10" y="385.88" width="60" height="30" as="geometry" />
        </mxCell>
        <mxCell id="kyV8k84bUw7KoBB66RXc-4" value="Request" style="text;html=1;strokeColor=none;fillColor=none;align=center;verticalAlign=middle;whiteSpace=wrap;rounded=0;" parent="1" vertex="1">
          <mxGeometry x="30" y="328.38" width="60" height="30" as="geometry" />
        </mxCell>
        <mxCell id="kyV8k84bUw7KoBB66RXc-5" value="Request" style="text;html=1;strokeColor=none;fillColor=none;align=center;verticalAlign=middle;whiteSpace=wrap;rounded=0;" parent="1" vertex="1">
          <mxGeometry x="30" y="450" width="60" height="30" as="geometry" />
        </mxCell>
        <mxCell id="5Rc_RCeBtlUP9MCHitPs-1" value="bookstore.io.vn" style="text;html=1;strokeColor=none;fillColor=none;align=center;verticalAlign=middle;whiteSpace=wrap;rounded=0;rotation=0;" vertex="1" parent="1">
          <mxGeometry x="330" y="681.5" width="60" height="30" as="geometry" />
        </mxCell>
        <mxCell id="5Rc_RCeBtlUP9MCHitPs-2" value="thienvuvan.shop" style="text;html=1;strokeColor=none;fillColor=none;align=center;verticalAlign=middle;whiteSpace=wrap;rounded=0;" vertex="1" parent="1">
          <mxGeometry x="330" y="221.12" width="60" height="30" as="geometry" />
        </mxCell>
        <mxCell id="5Rc_RCeBtlUP9MCHitPs-4" value="Bookstore&lt;br&gt;&amp;nbsp;ConfigMap" style="shape=step;perimeter=stepPerimeter;whiteSpace=wrap;html=1;fixedSize=1;" vertex="1" parent="1">
          <mxGeometry x="473" y="450" width="112" height="60" as="geometry" />
        </mxCell>
        <mxCell id="5Rc_RCeBtlUP9MCHitPs-6" value="Shop&lt;br&gt;&amp;nbsp;ConfigMap" style="shape=step;perimeter=stepPerimeter;whiteSpace=wrap;html=1;fixedSize=1;" vertex="1" parent="1">
          <mxGeometry x="502" y="141.12" width="101" height="58.88" as="geometry" />
        </mxCell>
        <mxCell id="5Rc_RCeBtlUP9MCHitPs-7" value="3 nodes&lt;br&gt;1 master&lt;br&gt;2 workers" style="shape=card;whiteSpace=wrap;html=1;" vertex="1" parent="1">
          <mxGeometry x="300" y="110" width="80" height="100" as="geometry" />
        </mxCell>
      </root>
    </mxGraphModel>
  </diagram>
</mxfile>
